# xmcd
#
# Track frame offsets: 
#        220
#        11187
#        26175
#        41220
#        60590
#        79702
#        130697
#        153140
#        172960
#        197185
#        221592
#        231727
#        306317
#        316057
#
# Disc length: 4378 seconds
#
# Revision: 0
# Processed by: cddbd v1.5.1PL0 Copyright (c) Steve Scherf et al.
# Submitted via: ExactAudioCopy v0.95a5
#
DISCID=c011180e
DTITLE=Strange Weather - At The Train Station
DYEAR=1991
DGENRE=Blues
TTITLE0=At The Train Station
TTITLE1=Without Your Loving
TTITLE2=The Sordid Forest
TTITLE3=Grapes Of Wrath
TTITLE4=Philosophies (In Parenthesis)
TTITLE5=Willie The Walrus
TTITLE6=Sidewalk Sales
TTITLE7=For All His Children
TTITLE8=By The Side Of The Road
TTITLE9=Like A River
TTITLE10=Once More
TTITLE11=The Door (Themes On Ecclesiastes)
TTITLE12=Upon The Cross
TTITLE13=Jungle Habitation
EXTD=
EXTT0=
EXTT1=
EXTT2=
EXTT3=
EXTT4=
EXTT5=
EXTT6=
EXTT7=
EXTT8=
EXTT9=
EXTT10=
EXTT11=
EXTT12=
EXTT13=
PLAYORDER=
